<svg width="183" height="34" viewBox="0 0 183 34" fill="none" xmlns="http://www.w3.org/2000/svg">
<path d="M30.4559 34H22.2479L8.51994 13.216L8.51994 34L0.311938 34L0.311938 0.303999H8.51994L22.2479 21.184L22.2479 0.303999H30.4559L30.4559 34ZM44.6137 6.88L44.6137 13.696H55.6057V20.032L44.6137 20.032V27.424L57.0457 27.424L57.0457 34L36.4057 34L36.4057 0.303999L57.0457 0.303999V6.88H44.6137ZM83.0144 34L76.1504 23.68L70.1024 34H60.7904L71.5904 16.864L60.5504 0.303999L70.1024 0.303999L76.8704 10.48L82.8224 0.303999L92.1344 0.303999L81.4304 17.296L92.5664 34L83.0144 34ZM104.895 0.303999L104.895 34H96.6869L96.6869 0.303999L104.895 0.303999ZM132.779 0.303999V6.88L119.051 6.88V13.984L129.323 13.984V20.368H119.051V34H110.843V0.303999L132.779 0.303999ZM145.301 0.303999V34H137.093V0.303999L145.301 0.303999ZM172.225 28.048H159.649L157.633 34H149.041L161.233 0.303999L170.737 0.303999L182.929 34L174.241 34L172.225 28.048ZM170.113 21.712L165.937 9.376L161.809 21.712H170.113Z" fill="#000"/>
<defs>
<linearGradient id="paint0_linear_83_3757" x1="-12.9255" y1="16.999" x2="190.702" y2="-24.2289" gradientUnits="userSpaceOnUse">
<stop stop-color="#582FFF"/>
<stop offset="1" stop-color="white"/>
</linearGradient>
</defs>
</svg>
